<svg width="149" height="150" viewBox="0 0 149 150" fill="none" xmlns="http://www.w3.org/2000/svg">
<path d="M49.4081 96.664L18.3338 65.5897C15.6437 62.8995 15.6437 58.538 18.3338 55.8478V55.8478C21.024 53.1577 25.3855 53.1577 28.0757 55.8478L59.15 86.9221" stroke="#F17547" stroke-width="6" stroke-linecap="round"/>
<path d="M49.4073 96.6658L26.1284 73.3869C23.4383 70.6967 19.0767 70.6967 16.3866 73.3869V73.3869C13.6964 76.077 13.6964 80.4386 16.3866 83.1287L39.6655 106.408L61.1102 127.852C72.8259 139.568 91.8208 139.568 103.537 127.852L110.432 120.957C117.888 113.501 120.882 102.679 118.319 92.4512L106.633 45.8216C105.669 41.976 101.889 39.5363 97.9875 40.2423V40.2423C94.1348 40.9396 91.4593 44.473 91.8328 48.3705L93.6904 67.7542C93.8759 69.6898 93.4931 71.6375 92.5888 73.3589L85.3471 87.1436" stroke="#F17547" stroke-width="6" stroke-linecap="round"/>
<path d="M59.1481 86.9215L24.6092 52.3826C21.9191 49.6925 21.9191 45.3309 24.6092 42.6408V42.6408C27.2993 39.9507 31.6609 39.9507 34.3511 42.6408L68.8899 77.1797" stroke="#F17547" stroke-width="6" stroke-linecap="round"/>
<path d="M68.8905 77.1815L37.8162 46.1073C35.1261 43.4171 35.1261 39.0555 37.8162 36.3654V36.3654C40.5064 33.6753 44.868 33.6753 47.5581 36.3654L89.4593 78.2666" stroke="#F17547" stroke-width="6" stroke-linecap="round"/>
</svg>
