<svg width="241" height="55" viewBox="0 0 241 55" fill="none" xmlns="http://www.w3.org/2000/svg">
<path d="M38.088 4.92354C38.5425 4.46818 39.315 4.46818 39.7695 4.92354C40.2239 5.37889 40.2239 6.15299 39.7695 6.60834L37.0428 9.34045L40.2694 12.5734L42.9961 9.84134C45.2229 7.61011 45.2229 3.9673 42.9961 1.69054C40.7693 -0.586222 37.1337 -0.540687 34.8615 1.69054L32.1348 4.42265L35.3613 7.65565L38.088 4.92354Z" fill="#20375C"/>
<path d="M6.59572 39.8491C6.14127 40.3045 5.36871 40.3045 4.91426 39.8491C4.45981 39.3938 4.45981 38.6197 4.91426 38.1643L7.64095 35.4322L4.41437 32.1992L1.68768 34.9313C-0.539121 37.1626 -0.539121 40.8054 1.68768 43.0821C3.91447 45.3589 7.55006 45.3134 9.8223 43.0821L12.549 40.35L9.32241 37.117L6.59572 39.8491Z" fill="#20375C"/>
<path d="M15.8652 49.1382C15.4108 49.5935 14.6382 49.5935 14.1838 49.1382C13.7293 48.6828 13.7293 47.9087 14.1838 47.4534L16.9105 44.7213L13.6839 41.4883L10.9572 44.2204C8.73041 46.4516 8.73041 50.0944 10.9572 52.3712C13.184 54.6479 16.8196 54.6024 19.0918 52.3712L21.8185 49.6391L18.5919 46.4061L15.8652 49.1382Z" fill="#20375C"/>
<path d="M44.1329 11.0245L41.4062 13.7566L44.6328 16.9896L47.3595 14.2575C47.814 13.8022 48.5865 13.8022 49.041 14.2575C49.4954 14.7129 49.4954 15.487 49.041 15.9423L46.3143 18.6744L49.5409 21.9074L52.2676 19.1753C54.4944 16.9441 54.4944 13.3013 52.2676 11.0245C50.0408 8.74776 46.4052 8.7933 44.1329 11.0245Z" fill="#20375C"/>
<path d="M4.91377 15.8979C4.45932 15.4425 4.45932 14.6684 4.91377 14.2131C5.36822 13.7577 6.14077 13.7577 6.59522 14.2131L9.45825 17.0818L12.6848 13.8488L9.82181 10.9801C7.59501 8.74883 3.95942 8.74883 1.68718 10.9801C-0.585059 13.2113 -0.539614 16.8541 1.68718 19.1309L4.55021 21.9996L7.77679 18.7666L4.91377 15.8979Z" fill="#20375C"/>
<path d="M39.7699 47.4535C40.2243 47.9089 40.2243 48.683 39.7699 49.1383C39.3154 49.5937 38.5429 49.5937 38.0884 49.1383L35.4981 46.5428L32.2715 49.7758L34.8618 52.3713C37.0886 54.6025 40.7242 54.6025 42.9965 52.3713C45.2687 50.1401 45.2233 46.4973 42.9965 44.2205L40.4061 41.625L37.1795 44.858L39.7699 47.4535Z" fill="#20375C"/>
<path d="M14.1833 6.65372C13.7288 6.19837 13.7288 5.42427 14.1833 4.96892C14.6377 4.51357 15.4103 4.51357 15.8648 4.96892L18.7278 7.83763L21.9544 4.60464L19.0913 1.73592C16.8645 -0.495306 13.229 -0.495306 10.9567 1.73592C8.68447 3.96714 8.72992 7.60996 10.9567 9.88672L13.8197 12.7554L17.0463 9.52244L14.1833 6.65372Z" fill="#20375C"/>
<path d="M49.0394 38.1644C49.4939 38.6198 49.4939 39.3939 49.0394 39.8492C48.585 40.3046 47.8124 40.3046 47.358 39.8492L44.7676 37.2537L41.541 40.4867L44.1314 43.0822C46.3582 45.3135 49.9938 45.3135 52.266 43.0822C54.5382 40.851 54.4928 37.2082 52.266 34.9314L49.6756 32.3359L46.4491 35.5689L49.0394 38.1644Z" fill="#20375C"/>
<path d="M34.7248 28.9199L30.6348 32.9726L33.2706 35.6136L30.6348 38.2546L34.7248 42.3528L41.4052 35.6136L37.3606 31.561L34.7248 28.9199Z" fill="#20375C"/>
<path d="M41.542 27.372L38.9062 30.0131L42.9508 34.0657L49.6767 27.372L45.5866 23.2739L42.9508 20.6328L38.9062 24.731L41.542 27.372Z" fill="#FF6B37"/>
<path d="M26.4547 20.6328L22.4102 24.731L25.046 27.372L22.4102 30.0131L26.4547 34.0657L33.1806 27.372L29.0905 23.2739L26.4547 20.6328Z" fill="#FF6B37"/>
<path d="M33.1801 43.9007L29.1355 39.8481L26.4997 37.207L22.4551 41.2597L25.0909 43.9007L24.3638 44.6293C23.2276 45.7676 23.2276 47.5891 24.3638 48.6819C25.4999 49.7747 27.3177 49.8203 28.4084 48.6819L33.2255 43.8552L33.1801 43.9007Z" fill="#FF6B37"/>
<path d="M16.684 27.3733L12.6394 23.3206L11.9123 22.5921C10.7762 21.4537 8.95839 21.4537 7.86772 22.5921C6.77704 23.7304 6.73159 25.5519 7.86772 26.6447L8.59483 27.3733L7.86772 28.1018C6.73159 29.2402 6.73159 31.0616 7.86772 32.1545C9.00384 33.2473 10.8216 33.2928 11.9123 32.1545L16.7295 27.3277L16.684 27.3733Z" fill="#FF6B37"/>
<path d="M33.1801 10.844L29.1355 6.79133L28.4084 6.06277C27.2722 4.92439 25.4544 4.92439 24.3638 6.06277C23.2731 7.20115 23.2276 9.02256 24.3638 10.1154L25.0909 10.844L22.4551 13.485L26.4997 17.5376L33.1801 10.844Z" fill="#FF6B37"/>
<path d="M24.9105 19.0842L20.8659 15.0316L20.1388 14.303C19.0027 13.1646 17.1849 13.1646 16.0942 14.303C15.0036 15.4414 14.9581 17.2628 16.0942 18.3556L16.8213 19.0842L14.1855 21.7252L18.2301 25.7779L24.9105 19.0842Z" fill="#20375C"/>
<path d="M24.9105 35.6136L20.8659 31.561L18.2301 28.9199L14.1855 32.9726L16.8213 35.6136L16.0942 36.3422C14.9581 37.4805 14.9581 39.3019 16.0942 40.3948C17.2304 41.4876 19.0481 41.5332 20.1388 40.3948L24.956 35.5681L24.9105 35.6136Z" fill="#20375C"/>
<path d="M34.7248 12.3906L30.6348 16.4433L33.2706 19.0843L30.6348 21.7253L34.7248 25.8235L41.4052 19.0843L37.3606 15.0317L34.7248 12.3906Z" fill="#20375C"/>
<path d="M87.4434 10.1607C87.9887 10.1607 88.5795 10.1151 89.1703 10.0241C89.8065 9.933 90.3973 9.84194 90.8972 9.70533C91.9878 9.43212 92.9876 9.34105 94.0329 9.34105C94.5782 9.34105 95.0781 9.56872 95.4416 10.0696C95.8507 10.5705 96.1688 11.1625 96.4414 11.7999C96.7141 12.4374 96.8504 13.1205 96.8959 13.8035C96.8959 14.3044 96.6232 14.5321 95.987 14.4865C95.169 14.3955 94.2601 14.3499 93.3058 14.3044C92.3514 14.2589 91.3971 14.3044 90.4882 14.3044H90.3518C90.0337 15.124 89.7156 15.9437 89.352 16.7633C88.9885 17.5829 88.6249 18.3115 88.2159 19.04C89.5793 19.8597 90.9881 20.8159 92.4877 21.9543C93.9874 23.0927 95.3508 24.3221 96.7141 25.7792C96.8959 26.0069 96.9868 26.2346 97.0322 26.5078C97.0322 26.781 97.0322 27.0542 96.8504 27.2819C96.7141 27.5096 96.5323 27.7373 96.3051 28.056C96.0779 28.3292 95.8052 28.6024 95.5325 28.8756C95.2599 29.1489 94.9418 29.3765 94.6691 29.6042C94.351 29.8319 94.0783 29.9685 93.8511 30.0596C93.3057 30.2417 92.8513 30.1051 92.4423 29.6497C91.6243 28.6024 90.6245 27.5096 89.4429 26.3712C88.2614 25.2328 87.0798 24.14 85.8074 23.0927C84.7167 24.6864 83.5351 26.1891 82.3081 27.5551C81.0811 28.9212 79.8086 30.1051 78.5362 31.1979C77.9 31.6533 77.3092 31.881 76.8093 31.881C75.9913 31.7899 75.2187 31.4711 74.4461 30.9703C74.2189 30.8337 74.128 30.606 74.1735 30.4238C74.1735 30.1962 74.3098 30.014 74.4461 29.7864C76.4457 27.5551 78.3544 25.1418 80.0813 22.5007C81.8082 19.9052 83.2624 17.1731 84.3986 14.3044C83.8532 14.3044 83.3533 14.3955 82.8534 14.441C82.3535 14.4865 81.8536 14.5776 81.3992 14.7142C80.2176 15.0785 79.0815 15.2606 78.0817 15.2606C77.6727 15.2606 77.3546 15.2151 77.1728 15.124C76.991 15.0329 76.7638 14.8508 76.5821 14.5776C76.2185 14.0767 75.9004 13.4392 75.5823 12.7107C75.2642 11.9821 75.0824 11.2991 74.9915 10.6616C74.946 10.3884 74.9915 10.2062 75.1733 10.0241C75.355 9.84193 75.5368 9.7964 75.8095 9.84193C76.582 9.97854 77.4455 10.1151 78.3089 10.1607C79.1724 10.2062 80.1722 10.2518 81.2629 10.2518H87.5797L87.4434 10.1607ZM107.848 40.8969C107.848 42.2175 107.575 43.4469 107.03 44.5853C106.485 45.7237 105.758 46.7254 104.803 47.5451C103.849 48.3647 102.713 49.0477 101.349 49.5486C99.9861 50.0495 98.5319 50.2772 96.9413 50.2772C95.3508 50.2772 93.8056 50.0495 92.4877 49.5486C91.1698 49.0477 89.9883 48.4102 89.0339 47.5451C88.0796 46.7254 87.307 45.7237 86.8071 44.5853C86.2618 43.4469 85.9891 42.2175 85.9891 40.8969C85.9891 39.5764 86.2618 38.347 86.8071 37.2086C87.3525 36.0702 88.0796 35.0684 89.0339 34.2488C89.9883 33.4292 91.1244 32.7461 92.4877 32.2452C93.8056 31.7444 95.3053 31.5167 96.9413 31.5167C98.5774 31.5167 100.032 31.7444 101.349 32.2452C102.667 32.7461 103.849 33.3836 104.803 34.2488C105.758 35.0684 106.53 36.0702 107.03 37.2086C107.575 38.347 107.848 39.5764 107.848 40.8969ZM101.895 40.8969C101.895 39.3943 101.44 38.1193 100.531 37.072C99.6226 36.0247 98.3956 35.5693 96.8959 35.5693C96.1233 35.5693 95.4417 35.7059 94.8509 35.9791C94.2601 36.2523 93.7147 36.6166 93.2603 37.1175C92.8059 37.5729 92.4877 38.1648 92.2605 38.8023C92.0333 39.4398 91.897 40.1684 91.897 40.8969C91.897 41.6255 92.0333 42.3541 92.2605 42.9916C92.4877 43.629 92.8513 44.221 93.2603 44.6763C93.7147 45.1317 94.2147 45.5415 94.8509 45.8147C95.4871 46.0879 96.1688 46.2245 96.8959 46.2245C98.3956 46.2245 99.6226 45.7237 100.531 44.7219C101.44 43.7201 101.895 42.4451 101.895 40.8969ZM108.348 28.2837C108.348 29.0578 108.03 29.6497 107.439 30.1051C106.894 30.5149 106.303 30.8792 105.621 31.1069C104.94 31.3345 104.258 31.5167 103.576 31.5167C102.804 31.5167 102.44 31.1524 102.44 30.3783V21.5445C102.167 21.5445 101.895 21.59 101.622 21.6355C101.349 21.6811 101.122 21.7266 100.85 21.7722C99.5317 22.1364 98.2592 22.273 97.0322 22.273C96.6232 22.273 96.3051 22.2275 96.1233 22.1364C95.8961 22.0454 95.7143 21.8632 95.5325 21.59C95.169 21.0891 94.8509 20.4516 94.5328 19.7231C94.2147 18.9945 94.0329 18.2659 93.8965 17.6285C93.8511 17.3552 93.8965 17.1731 94.0783 16.991C94.2601 16.8088 94.4419 16.7633 94.7145 16.8088C96.2597 17.082 98.0775 17.2186 100.168 17.2186H102.44V12.9839C102.44 11.9821 102.122 11.208 101.531 10.7071C101.077 10.3428 100.668 10.0696 100.213 9.84193C99.8044 9.61426 99.3499 9.43212 98.8955 9.29551C98.5319 9.15891 98.3501 8.8857 98.3956 8.56695C98.441 8.1116 98.5773 7.65625 98.8046 7.10983C99.0318 6.5634 99.259 6.15358 99.4863 5.83484C99.668 5.60716 99.8952 5.51609 100.259 5.60716C101.622 5.88038 102.985 6.24466 104.303 6.74554C105.667 7.24643 106.894 7.88392 107.984 8.61249C108.575 8.97677 108.848 9.47765 108.757 10.0696C108.666 10.7982 108.575 11.5267 108.484 12.3464C108.393 13.1205 108.348 13.9401 108.348 14.7597V28.2382V28.2837Z" fill="black"/>
<path d="M145.612 27.8731C146.794 27.8731 148.112 27.6909 149.475 27.3722C150.611 27.099 151.793 26.9624 153.065 26.9624C153.611 26.9624 154.111 27.1901 154.474 27.6909C154.883 28.1918 155.201 28.8293 155.474 29.6034C155.747 30.3775 155.883 31.015 155.928 31.5614C155.928 32.0623 155.656 32.29 155.019 32.2445C154.201 32.1534 153.293 32.1079 152.338 32.0623C151.384 32.0168 150.429 32.0168 149.521 32.0168H126.026C125.344 32.0168 124.662 32.0168 123.981 32.1534C123.299 32.2445 122.708 32.3355 122.117 32.5177C120.799 32.8819 119.527 33.0186 118.3 33.0186C117.891 33.0186 117.573 33.0186 117.391 32.8819C117.209 32.7909 116.982 32.6087 116.8 32.3811C116.437 31.8802 116.119 31.2427 115.801 30.4686C115.482 29.6945 115.301 29.0115 115.21 28.374C115.164 28.1008 115.21 27.9186 115.392 27.7365C115.573 27.5543 115.755 27.5088 116.028 27.5543C117.573 27.8275 119.391 27.9641 121.481 27.9641H145.612V27.8731ZM121.754 7.56439C122.526 7.60992 123.39 7.65546 124.253 7.70099C125.117 7.70099 125.98 7.74653 126.844 7.74653H139.795C140.568 7.74653 141.25 7.47332 141.886 6.9269C142.113 6.79029 142.34 6.69922 142.613 6.69922C142.886 6.69922 143.204 6.79029 143.522 6.88136C144.067 7.01796 144.613 7.24564 145.158 7.47332C145.703 7.70099 146.249 7.9742 146.703 8.29295C147.067 8.52062 147.203 8.93044 147.203 9.5224C147.203 9.97775 147.112 10.3876 147.067 10.8429C147.021 11.2983 146.93 11.7081 146.839 12.1634C146.748 12.6188 146.658 12.9831 146.567 13.3018C146.476 13.6206 146.385 13.9393 146.339 14.3036H146.521C146.794 14.3036 147.021 14.3947 147.203 14.5313C147.43 14.6679 147.566 14.85 147.703 15.0322C147.975 15.3964 148.157 15.8518 148.339 16.3527C148.475 16.8536 148.566 17.3089 148.612 17.8098C148.657 18.4473 148.339 18.7205 147.657 18.675C146.93 18.6294 146.158 18.5384 145.34 18.4928C144.522 18.4473 143.704 18.4018 142.886 18.4018H128.889C128.889 18.8116 128.843 19.1303 128.798 19.4035C128.798 19.7223 128.798 19.9955 128.798 20.3142V20.4508C128.798 20.8607 128.889 21.1339 129.025 21.2705C129.161 21.4071 129.434 21.4526 129.798 21.4526H139.296C140.477 21.4526 141.795 21.2705 143.158 20.9517C144.294 20.6785 145.476 20.5419 146.748 20.5419C147.294 20.5419 147.794 20.7696 148.157 21.2705C148.566 21.7714 148.884 22.3633 149.157 23.0008C149.43 23.6383 149.566 24.3213 149.611 25.0499C149.611 25.5508 149.339 25.7785 148.703 25.7329C147.885 25.6419 146.976 25.5963 146.021 25.5508C145.067 25.5053 144.113 25.5052 143.204 25.5052H128.116C127.707 25.5052 127.298 25.5052 126.889 25.4142C126.48 25.3686 126.116 25.2776 125.798 25.1865C124.799 24.8222 124.071 24.3213 123.617 23.5928C123.253 23.0464 123.072 22.4544 123.072 21.8624V20.1776C123.072 19.4035 122.89 18.8571 122.481 18.5839C122.208 18.4018 121.981 18.2652 121.708 18.1286C121.436 18.0375 121.163 17.9009 120.754 17.7643C120.481 17.6732 120.345 17.4455 120.345 17.1268C120.345 16.8536 120.345 16.4437 120.481 15.9884C120.618 15.533 120.663 15.1232 120.754 14.9411C120.89 14.6679 121.072 14.5768 121.299 14.5768C121.845 14.5768 122.526 14.5768 123.344 14.5768C124.162 14.6223 124.98 14.7134 125.798 14.85L141.068 14.7134V11.8447H130.025C129.525 11.8447 128.98 11.8902 128.434 12.0268C127.889 12.1634 127.344 12.2545 126.889 12.3456C126.389 12.4367 125.889 12.5277 125.344 12.6188C124.844 12.7099 124.299 12.7554 123.753 12.7554C123.208 12.7554 122.708 12.5277 122.345 12.0268C121.936 11.5259 121.617 10.9795 121.345 10.342C121.072 9.70454 120.936 9.06705 120.89 8.38402C120.89 7.88313 121.163 7.65546 121.799 7.70099L121.754 7.56439ZM147.476 42.3077C147.476 43.5372 147.203 44.6756 146.612 45.6773C146.021 46.6791 145.203 47.5443 144.158 48.3184C143.113 49.0469 141.886 49.6389 140.432 50.0032C138.977 50.413 137.432 50.5951 135.705 50.5951C133.978 50.5951 132.388 50.413 130.979 50.0032C129.525 49.5934 128.298 49.0469 127.253 48.3184C126.207 47.5898 125.389 46.7246 124.799 45.6773C124.208 44.6756 123.935 43.5372 123.935 42.3077C123.935 41.0783 124.208 39.9854 124.799 38.9381C125.389 37.9363 126.207 37.0712 127.253 36.2971C128.298 35.523 129.525 34.9766 130.979 34.6123C132.433 34.248 133.978 34.0203 135.705 34.0203C137.432 34.0203 138.977 34.2025 140.432 34.6123C141.886 35.0221 143.113 35.5685 144.158 36.2971C145.203 37.0256 146.021 37.8908 146.612 38.9381C147.203 39.9399 147.476 41.0783 147.476 42.3077ZM141.568 42.3077C141.568 40.9872 141.022 39.9399 139.932 39.2113C138.841 38.4828 137.432 38.1185 135.751 38.1185C134.069 38.1185 132.661 38.4828 131.57 39.2113C130.479 39.9399 129.934 40.9872 129.934 42.3077C129.934 43.6283 130.479 44.6756 131.57 45.4041C132.661 46.1327 134.069 46.497 135.751 46.497C137.432 46.497 138.841 46.1327 139.932 45.4041C141.022 44.6756 141.568 43.6283 141.568 42.3077Z" fill="black"/>
<path d="M182.151 24.4138C182.151 26.0075 181.878 27.4646 181.333 28.7852C180.787 30.1512 180.015 31.3351 178.969 32.2914C177.924 33.2476 176.697 34.0673 175.288 34.6592C173.88 35.2512 172.244 35.5244 170.517 35.5244C168.79 35.5244 167.154 35.2512 165.7 34.6592C164.245 34.0673 163.018 33.2931 162.018 32.2914C161.019 31.2896 160.246 30.1057 159.701 28.7852C159.155 27.4191 158.883 25.962 158.883 24.4138C158.883 22.8656 159.155 21.4085 159.701 20.0424C160.246 18.6764 161.019 17.4924 162.018 16.4907C163.018 15.4889 164.245 14.7148 165.7 14.1228C167.154 13.5309 168.744 13.2577 170.517 13.2577C172.289 13.2577 173.88 13.5309 175.288 14.1228C176.697 14.7148 177.924 15.4889 178.969 16.4907C179.969 17.4924 180.787 18.6764 181.333 20.0424C181.878 21.4085 182.151 22.8656 182.151 24.4138ZM176.243 24.4138C176.243 23.4576 176.106 22.5468 175.879 21.6817C175.652 20.8165 175.243 20.0424 174.743 19.4049C174.243 18.7674 173.607 18.2665 172.925 17.9023C172.198 17.538 171.426 17.3103 170.517 17.3103C169.608 17.3103 168.79 17.4924 168.108 17.9023C167.426 18.3121 166.79 18.7674 166.29 19.4049C165.79 20.0424 165.381 20.771 165.154 21.6817C164.927 22.5924 164.791 23.4576 164.791 24.4138C164.791 25.37 164.927 26.2807 165.154 27.1459C165.427 28.0111 165.79 28.7852 166.29 29.4227C166.79 30.0602 167.381 30.561 168.108 30.9253C168.835 31.2896 169.608 31.4717 170.517 31.4717C171.426 31.4717 172.198 31.2896 172.925 30.9253C173.652 30.561 174.243 30.0602 174.743 29.4227C175.243 28.7852 175.652 28.0566 175.879 27.1459C176.152 26.2807 176.243 25.37 176.243 24.4138ZM187.149 13.3032C187.149 12.347 186.877 11.6184 186.286 11.072C185.832 10.7077 185.423 10.389 184.968 10.1157C184.559 9.84253 184.105 9.61485 183.65 9.47825C183.241 9.34164 183.059 9.06843 183.15 8.65862C183.196 8.20327 183.332 7.74791 183.559 7.20149C183.787 6.65507 183.968 6.24525 184.196 5.9265C184.377 5.65329 184.65 5.56222 185.059 5.65329C186.422 5.9265 187.786 6.33632 189.058 6.92828C190.331 7.52024 191.558 8.20326 192.648 8.93183C193.239 9.29611 193.512 9.79699 193.421 10.389C193.33 11.1175 193.239 11.8461 193.148 12.6202C193.057 13.3943 193.012 14.2139 193.012 15.0335V45.6787C193.012 46.4528 192.694 47.0448 192.103 47.4546C191.558 47.8644 190.967 48.2287 190.285 48.4564C189.604 48.7296 188.922 48.8662 188.24 48.8662C187.468 48.8662 187.104 48.5019 187.104 47.7278V13.2577L187.149 13.3032Z" fill="black"/>
<path d="M230.685 27.1913C231.867 27.1913 233.185 27.0091 234.548 26.6904C235.684 26.4172 236.866 26.2806 238.138 26.2806C238.683 26.2806 239.183 26.5083 239.547 27.0091C239.956 27.51 240.274 28.1475 240.547 28.9216C240.819 29.6957 240.956 30.3332 241.001 30.8796C241.001 31.3805 240.728 31.6082 240.092 31.5627C239.274 31.4716 238.365 31.426 237.411 31.3805C236.457 31.335 235.502 31.335 234.593 31.335H211.098C210.417 31.335 209.735 31.335 209.053 31.4716C208.372 31.5627 207.781 31.6537 207.19 31.8359C205.872 32.2001 204.6 32.3368 203.373 32.3368C202.964 32.3368 202.646 32.2912 202.464 32.2001C202.237 32.1091 202.055 31.9269 201.873 31.6993C201.51 31.1984 201.191 30.5609 200.873 29.7868C200.555 29.0127 200.373 28.3297 200.237 27.6922C200.192 27.419 200.237 27.2368 200.419 27.0547C200.601 26.8725 200.782 26.827 201.055 26.8725C202.6 27.1457 204.418 27.2823 206.508 27.2823H230.64L230.685 27.1913ZM208.872 40.6697C208.872 40.3054 208.826 39.9867 208.781 39.7135C208.781 39.3947 208.644 39.167 208.372 39.0304C208.099 38.8938 207.826 38.7572 207.554 38.6206C207.236 38.5295 206.963 38.4385 206.736 38.3474C206.327 38.2108 206.145 38.0286 206.145 37.801C206.145 37.3456 206.145 36.9358 206.145 36.4805C206.19 36.0251 206.281 35.6608 206.418 35.2965C206.508 34.9778 206.736 34.8412 207.099 34.8412C208.145 34.8412 209.235 34.8412 210.417 34.9778C211.598 35.1144 212.734 35.2965 213.871 35.5242H225.732C226.504 35.5242 227.186 35.251 227.822 34.7046C228.049 34.5224 228.277 34.4769 228.549 34.4769C228.822 34.4769 229.14 34.568 229.458 34.6591C230.003 34.7957 230.549 35.0233 231.094 35.251C231.639 35.4787 232.185 35.7519 232.639 36.0706C233.003 36.2983 233.139 36.7081 233.139 37.3001C233.139 38.5295 233.048 39.759 232.866 40.9884C232.685 42.2179 232.457 43.4018 232.139 44.6312C232.685 44.6312 233.094 44.8589 233.366 45.3143C233.684 45.7696 233.912 46.225 234.003 46.6348C234.093 47.0446 234.139 47.5 234.184 48.0464C234.184 48.3651 234.184 48.5928 233.957 48.775C233.775 48.9571 233.548 49.0026 233.23 49.0026C232.457 48.9571 231.73 48.866 231.049 48.8205C230.367 48.8205 229.594 48.7294 228.776 48.7294H214.552C214.416 49.0482 214.189 49.2758 213.78 49.5035C213.234 49.7767 212.689 49.9133 212.098 50.0499C211.507 50.141 210.962 50.1865 210.371 50.1865C209.644 50.1865 209.281 49.7767 209.281 49.0937L208.781 40.7152L208.872 40.6697ZM232.503 15.6709C232.503 16.9459 232.185 18.1753 231.549 19.2682C230.912 20.361 230.049 21.3172 228.958 22.1369C227.868 22.9565 226.595 23.5485 225.095 24.0493C223.596 24.5047 222.051 24.7324 220.324 24.7324C218.597 24.7324 217.052 24.5047 215.552 24.0493C214.052 23.594 212.78 22.9565 211.689 22.1369C210.598 21.3172 209.735 20.361 209.099 19.2682C208.463 18.1753 208.144 16.9914 208.144 15.6709C208.144 14.3504 208.463 13.1664 209.099 12.0736C209.735 10.9808 210.598 10.0245 211.689 9.20488C212.78 8.38525 214.052 7.79329 215.552 7.29241C217.052 6.83705 218.597 6.60938 220.324 6.60938C222.051 6.60938 223.596 6.83705 225.095 7.29241C226.595 7.74776 227.868 8.38525 228.958 9.20488C230.049 10.0245 230.912 10.9808 231.549 12.0736C232.185 13.1664 232.503 14.3504 232.503 15.6709ZM226.595 15.6709C226.595 14.9879 226.413 14.3048 226.141 13.7129C225.868 13.1209 225.368 12.5745 224.823 12.1647C224.277 11.7093 223.596 11.3906 222.869 11.1174C222.142 10.8442 221.278 10.7531 220.415 10.7531C219.551 10.7531 218.688 10.8897 217.961 11.1174C217.233 11.345 216.552 11.7093 216.006 12.1647C215.461 12.62 215.007 13.1209 214.689 13.7129C214.37 14.3048 214.234 14.9879 214.234 15.6709C214.234 16.3539 214.416 17.0369 214.689 17.6289C214.961 18.2208 215.461 18.7673 216.006 19.1771C216.552 19.6324 217.233 19.9512 217.961 20.2244C218.688 20.4976 219.551 20.5887 220.415 20.5887C221.278 20.5887 222.142 20.4521 222.869 20.2244C223.596 19.9967 224.277 19.6324 224.823 19.1771C225.368 18.7217 225.823 18.2208 226.141 17.6289C226.459 17.0369 226.595 16.3994 226.595 15.6709ZM214.598 39.3492L214.734 44.9045H226.959V39.3492H214.598Z" fill="black"/>
</svg>
