<svg viewBox="0 0 218 182" fill="none" xmlns="http://www.w3.org/2000/svg">
<path d="M92.4071 128.664L61.3328 97.5897C58.6427 94.8995 58.6427 90.538 61.3328 87.8478V87.8478C64.023 85.1577 68.3846 85.1577 71.0747 87.8478L102.149 118.922" stroke="#F17547" stroke-width="6" stroke-linecap="round"/>
<path d="M92.4064 128.666L69.1274 105.387C66.4373 102.697 62.0757 102.697 59.3856 105.387V105.387C56.6954 108.077 56.6954 112.439 59.3856 115.129L82.6645 138.408L104.109 159.852C115.825 171.568 134.82 171.568 146.536 159.852L153.431 152.957C160.887 145.501 163.881 134.679 161.318 124.451L149.632 77.8216C148.668 73.976 144.888 71.5363 140.987 72.2423V72.2423C137.134 72.9396 134.458 76.473 134.832 80.3705L136.689 99.7542C136.875 101.69 136.492 103.637 135.588 105.359L128.346 119.144" stroke="#F17547" stroke-width="6" stroke-linecap="round"/>
<path d="M102.149 118.922L67.6102 84.3826C64.92 81.6925 64.92 77.3309 67.6102 74.6408V74.6408C70.3003 71.9507 74.6619 71.9507 77.352 74.6408L111.891 109.18" stroke="#F17547" stroke-width="6" stroke-linecap="round"/>
<path d="M111.891 109.182L80.8162 78.1073C78.1261 75.4171 78.1261 71.0555 80.8162 68.3654V68.3654C83.5064 65.6753 87.868 65.6753 90.5581 68.3654L132.459 110.267" stroke="#F17547" stroke-width="6" stroke-linecap="round"/>
<path d="M34.603 97.7539L34.1772 98.193C26.7691 105.833 26.9598 118.032 34.603 125.436V125.436" stroke="#F9C4B0" stroke-width="6" stroke-linecap="round"/>
<path d="M23.3571 88.2383L22.6386 88.9792C10.1375 101.871 10.4592 122.458 23.3571 134.953V134.953" stroke="#F17547" stroke-width="6" stroke-linecap="round"/>
<path d="M183.397 97.7539L183.823 98.193C191.231 105.833 191.04 118.032 183.397 125.436V125.436" stroke="#F9C4B0" stroke-width="6" stroke-linecap="round"/>
<path d="M194.643 88.2383L195.361 88.9792C207.863 101.871 207.541 122.458 194.643 134.953V134.953" stroke="#F17547" stroke-width="6" stroke-linecap="round"/>
<path d="M126.254 40.3692C126.271 40.3585 126.289 40.3478 126.308 40.3374C127.647 39.5723 129.353 40.0371 130.118 41.3765C132.58 45.6845 132.879 51.4727 130.916 56.8603C129.769 60.0107 127.951 62.7751 125.673 64.8787C126.064 67.9548 125.679 71.2401 124.531 74.3909C123.783 76.4445 121.993 79.0159 120.687 80.5937C119.703 81.7824 117.942 81.9483 116.754 80.9648C115.566 79.9814 115.4 78.2204 116.384 77.0318C117.646 75.5057 118.893 73.5488 119.282 72.4794C119.792 71.079 120.099 69.6544 120.2 68.263C117.445 69.2495 114.61 69.2833 111.979 68.3249L111.916 68.3025C109.789 67.5284 108.038 66.0671 106.983 64.1878C105.867 62.1989 105.652 59.8915 106.393 57.8567C107.889 53.7508 112.799 51.7559 117.34 53.4093L117.4 53.4305C120.033 54.3901 122.183 56.2391 123.659 58.7675C124.477 57.6363 125.158 56.3481 125.667 54.9481C127.054 51.1428 126.901 47.0048 125.268 44.1485C124.513 42.8278 124.956 41.1492 126.254 40.3692ZM119.327 62.5666C118.498 60.6521 117.162 59.2895 115.492 58.6807L115.431 58.6589C113.81 58.0681 112.076 58.5768 111.642 59.7682C111.391 60.458 111.667 61.12 111.855 61.4529C112.25 62.1569 112.969 62.7403 113.827 63.0531L113.89 63.0754C115.561 63.6844 117.461 63.5007 119.327 62.5666Z" fill="#F9C4B0"/>
<path d="M140.1 12.6236C139.988 12.1296 139.739 11.6769 139.382 11.3168C139.026 10.9568 138.575 10.7036 138.083 10.5859L130.698 8.82234L127.964 1.73873C127.781 1.26574 127.47 0.853268 127.065 0.547946C126.661 0.242624 126.178 0.0566378 125.674 0.0110213C125.169 -0.0345951 124.661 0.0619776 124.208 0.289819C123.755 0.51766 123.375 0.867678 123.111 1.30029L119.152 7.776L111.57 8.18727C111.064 8.21467 110.575 8.38318 110.16 8.67375C109.744 8.96433 109.418 9.36537 109.219 9.83151C109.02 10.2976 108.955 10.8103 109.031 11.3115C109.108 11.8126 109.324 12.2823 109.653 12.6674L114.591 18.4347L112.64 25.7754C112.509 26.2653 112.519 26.7818 112.667 27.2666C112.815 27.7514 113.095 28.1852 113.477 28.5189C113.858 28.8525 114.326 29.0728 114.826 29.1548C115.326 29.2367 115.839 29.1771 116.307 28.9827L123.318 26.0688L129.694 30.1903C130.12 30.4656 130.614 30.6163 131.121 30.6254C131.628 30.6345 132.127 30.5016 132.563 30.2417C132.998 29.9818 133.352 29.6054 133.584 29.1549C133.817 28.7044 133.919 28.1978 133.878 27.6925L133.274 20.1246L139.166 15.3361C139.56 15.0162 139.855 14.5926 140.021 14.1132C140.186 13.6339 140.213 13.1179 140.1 12.6236ZM128.737 16.8097C128.396 17.0875 128.126 17.4444 127.953 17.8494C127.78 18.2544 127.708 18.6955 127.743 19.1346L128.023 22.6391L125.071 20.7294C124.701 20.4902 124.278 20.3445 123.84 20.3049C123.401 20.2652 122.959 20.3329 122.552 20.5019L119.306 21.8515L120.209 18.4537C120.323 18.028 120.331 17.5812 120.233 17.1516C120.135 16.7221 119.935 16.3228 119.648 15.9881L117.361 13.3174L120.872 13.1269C121.312 13.1031 121.739 12.9727 122.118 12.7469C122.496 12.5211 122.813 12.2068 123.043 11.831L124.877 8.83083L126.143 12.1111C126.302 12.5218 126.557 12.8879 126.889 13.1778C127.22 13.4676 127.617 13.6727 128.045 13.7752L131.464 14.592L128.737 16.8097Z" fill="#F9C4B0"/>
</svg>
