<svg viewBox="0 0 18 18" fill="none" xmlns="http://www.w3.org/2000/svg">
<path d="M0 15C0 11.6863 2.68629 9 6 9C9.31371 9 12 11.6863 12 15V16.2C12 16.8627 11.4627 17.4 10.8 17.4H1.2C0.537258 17.4 0 16.8627 0 16.2V15Z" fill="#4B6DB4"/>
<circle cx="5.9998" cy="4.2" r="4.2" fill="#4B6DB4"/>
<path d="M6 15C6 11.6863 8.68629 9 12 9C15.3137 9 18 11.6863 18 15V16.2C18 16.8627 17.4627 17.4 16.8 17.4H7.2C6.53726 17.4 6 16.8627 6 16.2V15Z" fill="#F17547"/>
<circle cx="11.9998" cy="4.2" r="4.2" fill="#F17547"/>
</svg>
