<svg viewBox="0 0 158 158" fill="none" xmlns="http://www.w3.org/2000/svg">
<g clip-path="url(#clip0_1222_2013)">
<circle cx="79" cy="80" r="74" fill="#F9C4B0"/>
<path d="M62 55L66 43H92L98 55H116.5L121.5 57.5V109L116.5 114.5H43L37.5 112V57.5L62 55Z" fill="#F5F5F5"/>
<path d="M79 58.9528C66.1955 58.9528 55.7783 69.37 55.7783 82.1745C55.7783 94.979 66.1955 105.396 79 105.396C91.8045 105.396 102.222 94.979 102.222 82.1745C102.222 69.37 91.8045 58.9528 79 58.9528ZM79 97.9899C70.2794 97.9899 63.1846 90.8954 63.1846 82.1745C63.1846 73.4536 70.2794 66.3591 79 66.3591C87.7206 66.3591 94.8154 73.4536 94.8154 82.1745C94.8154 90.8954 87.7206 97.9899 79 97.9899ZM116.128 51.1031H99.8199L96.3331 41.9931C95.7847 40.5597 94.4093 39.6136 92.8747 39.6136H65.1256C63.5913 39.6136 62.2156 40.5597 61.6672 41.9928L58.1801 51.1031H41.8725C36.906 51.1031 32.8652 55.1439 32.8652 60.1104V109.38C32.8652 114.346 36.9057 118.387 41.8725 118.387H116.128C121.094 118.387 125.135 114.346 125.135 109.38V60.11C125.135 55.1435 121.094 51.1031 116.128 51.1031ZM117.729 109.379C117.729 110.262 117.01 110.98 116.128 110.98H41.8725C40.9899 110.98 40.2715 110.262 40.2715 109.379V60.11C40.2715 59.2275 40.9896 58.5091 41.8725 58.5091H60.7279C62.2622 58.5091 63.6379 57.5629 64.1863 56.1298L67.6734 47.0195H90.3272L93.814 56.1295C94.3624 57.5629 95.7378 58.5091 97.2725 58.5091H116.128C117.011 58.5091 117.729 59.2272 117.729 60.11L117.729 109.379ZM79 0C35.4392 0 0 35.4392 0 78.9997C0 122.56 35.4392 157.999 79 157.999C122.561 157.999 158 122.56 158 78.9997C158 35.4392 122.561 0 79 0ZM79 150.593C39.5231 150.593 7.40625 118.477 7.40625 78.9997C7.40625 39.5228 39.5231 7.40625 79 7.40625C118.477 7.40625 150.594 39.5228 150.594 78.9997C150.594 118.477 118.477 150.593 79 150.593Z" fill="#F17547"/>
</g>
<defs>
<clipPath id="clip0_1222_2013">
<rect width="158" height="158" fill="white"/>
</clipPath>
</defs>
</svg>
