<svg width="37" height="37" viewBox="0 0 37 37" fill="none" xmlns="http://www.w3.org/2000/svg">
<path d="M33.7698 -6.48499e-05C33.7937 -6.48499e-05 33.8176 -6.48499e-05 33.8424 0.000762939C35.625 0.0403748 37.0388 1.51685 36.9992 3.29952C36.8729 9.03376 33.7219 14.9463 28.5695 19.1157C25.5563 21.5537 22.109 23.2101 18.5998 23.938C17.1555 27.2186 14.8174 30.2442 11.8034 32.6821C9.83995 34.2717 6.53459 35.7531 4.3013 36.5388C2.6185 37.1306 0.775589 36.2466 0.183842 34.5647C-0.407906 32.8827 0.476002 31.039 2.15881 30.4472C4.31863 29.6871 6.71863 28.4904 7.74119 27.6626C9.08066 26.579 10.2328 25.3501 11.1621 24.0321C7.84435 23.3685 5.0152 21.7138 2.97916 19.1974L2.93047 19.138C1.28398 17.1044 0.419056 14.6137 0.493332 12.1237C0.571735 9.4885 1.73294 7.07448 3.67902 5.49979C7.60584 2.32235 13.6586 3.26981 17.1728 7.61176L17.2199 7.6687C19.2575 10.1875 20.2867 13.2998 20.243 16.6835C21.7269 16.0497 23.1687 15.179 24.5073 14.0954C28.1469 11.1507 30.4594 6.95976 30.5428 3.15757C30.5816 1.39966 32.0193 -6.48499e-05 33.7698 -6.48499e-05ZM13.6884 17.8679C14.0078 15.4778 13.4952 13.332 12.2028 11.7342L12.1558 11.6764C10.9013 10.1256 8.88094 9.59744 7.74119 10.5193C7.08177 11.0533 6.96127 11.8736 6.94889 12.3152C6.92083 13.2478 7.28562 14.2538 7.94999 15.075L7.99868 15.1344C9.29194 16.7331 11.2834 17.6822 13.6884 17.8679Z" fill="#F17547"/>
</svg>
