<svg viewBox="0 0 20 20" fill="none" xmlns="http://www.w3.org/2000/svg">
<rect x="1" y="1" width="18" height="18" rx="7" stroke="#F17547" stroke-width="2"/>
<path d="M15.0403 5.00008C15.0474 5.00008 15.0545 5.00008 15.0619 5.00033C15.5915 5.0121 16.0115 5.45075 15.9998 5.98037C15.9622 7.68397 15.0261 9.44054 13.4954 10.6793C12.6002 11.4036 11.576 11.8957 10.5334 12.1119C10.1043 13.0866 9.40969 13.9854 8.51425 14.7097C7.93093 15.182 6.94893 15.6221 6.28544 15.8555C5.78549 16.0313 5.23797 15.7687 5.06217 15.269C4.88636 14.7693 5.14897 14.2216 5.64892 14.0458C6.29059 13.8199 7.00361 13.4644 7.30741 13.2185C7.70535 12.8965 8.04764 12.5314 8.32373 12.1399C7.33805 11.9427 6.49753 11.4511 5.89264 10.7035L5.87817 10.6859C5.38901 10.0817 5.13205 9.34173 5.15412 8.60198C5.17741 7.81907 5.5224 7.10188 6.10056 6.63405C7.26719 5.69006 9.06544 5.97154 10.1095 7.26151L10.1235 7.27842C10.7288 8.02675 11.0346 8.95138 11.0216 9.95667C11.4625 9.76836 11.8908 9.50968 12.2885 9.18774C13.3698 8.31289 14.0568 7.0678 14.0816 5.9382C14.0931 5.41593 14.5203 5.00008 15.0403 5.00008ZM9.07427 10.3085C9.16916 9.59844 9.01689 8.96094 8.63292 8.48625L8.61894 8.46908C8.24625 8.00836 7.64602 7.85144 7.30741 8.12532C7.1115 8.28396 7.0757 8.52768 7.07202 8.65886C7.06368 8.93593 7.17206 9.23482 7.36944 9.47879L7.38391 9.49644C7.76812 9.97138 8.35978 10.2534 9.07427 10.3085Z" fill="#F17547"/>
</svg>
