<svg width="25" height="25" viewBox="0 0 25 25" fill="none" xmlns="http://www.w3.org/2000/svg">
<rect x="1" y="1" width="23" height="23" rx="9" fill="#F5F5F5" stroke="#F17547" stroke-width="2"/>
<path d="M18.7994 6.24913C18.8083 6.24913 18.8172 6.24913 18.8264 6.24944C19.4884 6.26415 20.0134 6.81246 19.9987 7.47448C19.9518 9.60399 18.7816 11.7997 16.8682 13.3481C15.7492 14.2535 14.469 14.8686 13.1658 15.1389C12.6294 16.3572 11.7611 17.4808 10.6418 18.3862C9.91269 18.9765 8.68519 19.5267 7.85582 19.8184C7.23088 20.0382 6.54649 19.7099 6.32673 19.0853C6.10698 18.4607 6.43523 17.776 7.06017 17.5562C7.86226 17.2739 8.75354 16.8295 9.13328 16.5221C9.63072 16.1197 10.0586 15.6633 10.4037 15.1739C9.17159 14.9274 8.12094 14.3129 7.36482 13.3784L7.34674 13.3564C6.73529 12.6012 6.41408 11.6762 6.44167 10.7515C6.47078 9.77286 6.90202 8.87638 7.62473 8.29159C9.08301 7.1116 11.3308 7.46345 12.6359 9.0759L12.6533 9.09705C13.4101 10.0325 13.7923 11.1882 13.776 12.4449C14.3271 12.2095 14.8625 11.8861 15.3597 11.4837C16.7113 10.3901 17.5701 8.83378 17.601 7.42177C17.6154 6.76894 18.1493 6.24913 18.7994 6.24913ZM11.3419 12.8847C11.4605 11.9971 11.2701 11.2002 10.7902 10.6068L10.7727 10.5854C10.3068 10.0095 9.55654 9.81332 9.13328 10.1557C8.88839 10.354 8.84364 10.6586 8.83905 10.8226C8.82863 11.1689 8.9641 11.5425 9.21082 11.8475L9.2289 11.8696C9.70918 12.4633 10.4487 12.8157 11.3419 12.8847Z" fill="#F17547"/>
</svg>
