<svg viewBox="0 0 14 18" fill="none" xmlns="http://www.w3.org/2000/svg">
<path fill-rule="evenodd" clip-rule="evenodd" d="M14 7.0452C14 8.71127 13.4254 10.2423 12.4647 11.4484H12.4687C12.4687 11.4484 10.0359 14.725 8.15131 17.0451C7.55 17.7852 6.45018 17.7849 5.84931 17.0445C3.97063 14.7295 1.54096 11.4555 1.54096 11.4555L1.5353 11.4484C0.574624 10.2423 0 8.71127 0 7.0452C0 3.15424 3.13399 0 7 0C10.866 0 14 3.15424 14 7.0452ZM9.61372 7.01469C9.61372 8.46751 8.4436 9.64519 7.00009 9.64519C5.55658 9.64519 4.38646 8.46751 4.38646 7.01469C4.38646 5.5619 5.55658 4.38418 7.00009 4.38418C8.4436 4.38418 9.61372 5.5619 9.61372 7.01469Z" fill="#F17547"/>
<ellipse cx="6.99835" cy="6.93437" rx="3.23077" ry="3.2" fill="#F5F5F5"/>
</svg>
