<svg width="6" height="7" viewBox="0 0 6 7" fill="none" xmlns="http://www.w3.org/2000/svg">
<path fill-rule="evenodd" clip-rule="evenodd" d="M5.44444 2.80207C5.44444 3.46471 5.22097 4.07365 4.84737 4.55334H4.84893C4.84893 4.55334 3.90285 5.85652 3.16995 6.77929C2.93611 7.07366 2.5084 7.07356 2.27473 6.77905C1.54414 5.85833 0.599263 4.55617 0.599263 4.55617L0.59706 4.55334C0.223465 4.07365 0 3.46471 0 2.80207C0 1.25453 1.21878 0 2.72222 0C4.22567 0 5.44444 1.25453 5.44444 2.80207ZM3.73867 2.78993C3.73867 3.36776 3.28362 3.83616 2.72226 3.83616C2.16089 3.83616 1.70585 3.36776 1.70585 2.78993C1.70585 2.21212 2.16089 1.74371 2.72226 1.74371C3.28362 1.74371 3.73867 2.21212 3.73867 2.78993Z" fill="#F5F5F5"/>
</svg>
