<svg width="91" height="91" viewBox="0 0 91 91" fill="none" xmlns="http://www.w3.org/2000/svg">
<g clip-path="url(#clip0_1648_2897)">
<path d="M77.6735 13.3267C69.0795 4.73289 57.6535 0 45.5 0C33.3465 0 21.9205 4.73289 13.3265 13.3267C4.73289 21.9205 0 33.3465 0 45.5C0 57.6535 4.73289 69.0795 13.3265 77.6733C21.9205 86.2671 33.3465 91 45.5 91C57.6535 91 69.0795 86.2671 77.6735 77.6733C86.2671 69.0795 91 57.6535 91 45.5C91 33.3465 86.2671 21.9205 77.6735 13.3267ZM45.5 85.668C33.6151 85.668 22.9212 80.4778 15.5603 72.2471C20.1236 60.1492 31.8052 51.543 45.5 51.543C36.6655 51.543 29.5039 44.3813 29.5039 35.5469C29.5039 26.7124 36.6655 19.5508 45.5 19.5508C54.3345 19.5508 61.4961 26.7124 61.4961 35.5469C61.4961 44.3813 54.3345 51.543 45.5 51.543C59.1948 51.543 70.8764 60.1492 75.4397 72.2471C68.0788 80.4778 57.3849 85.668 45.5 85.668Z" fill="#253659"/>
<path d="M37 51C37.4 49.4 36.5 49 35 47.5L45.5 46.5V54.5L33.5 54C34.6667 53.3333 36.6 52.6 37 51Z" fill="white"/>
</g>
<defs>
<clipPath id="clip0_1648_2897">
<rect width="91" height="91" fill="white"/>
</clipPath>
</defs>
</svg>
