<svg width="52" height="24" viewBox="0 0 52 24" fill="none" xmlns="http://www.w3.org/2000/svg">
<path d="M1 23V15C1 7.26801 7.26801 1 15 1H37C44.732 1 51 7.26801 51 15V23" stroke="#F17547" stroke-width="2"/>
<rect x="17" y="7" width="18" height="16" rx="4" stroke="#F17547" stroke-width="2"/>
<path d="M31.0325 10.0001C31.0396 10.0001 31.0467 10.0001 31.0541 10.0003C31.5837 10.0121 32.0037 10.4508 31.9919 10.9804C31.9544 12.684 31.0183 14.4405 29.4875 15.6793C28.5923 16.4036 27.5682 16.8957 26.5256 17.1119C26.0965 18.0866 25.4019 18.9854 24.5064 19.7097C23.9231 20.182 22.9411 20.6221 22.2776 20.8555C21.7777 21.0313 21.2302 20.7687 21.0544 20.269C20.8786 19.7693 21.1412 19.2216 21.6411 19.0458C22.2828 18.8199 22.9958 18.4644 23.2996 18.2185C23.6975 17.8965 24.0398 17.5314 24.3159 17.1399C23.3302 16.9427 22.4897 16.4511 21.8848 15.7035L21.8704 15.6859C21.3812 15.0817 21.1242 14.3417 21.1463 13.602C21.1696 12.8191 21.5146 12.1019 22.0928 11.6341C23.2594 10.6901 25.0576 10.9715 26.1017 12.2615L26.1156 12.2784C26.721 13.0268 27.0268 13.9514 27.0138 14.9567C27.4546 14.7684 27.883 14.5097 28.2807 14.1877C29.362 13.3129 30.049 12.0678 30.0738 10.9382C30.0853 10.4159 30.5124 10.0001 31.0325 10.0001ZM25.0665 15.3085C25.1613 14.5984 25.0091 13.9609 24.6251 13.4862L24.6111 13.4691C24.2384 13.0084 23.6382 12.8514 23.2996 13.1253C23.1037 13.284 23.0679 13.5277 23.0642 13.6589C23.0559 13.9359 23.1642 14.2348 23.3616 14.4788L23.3761 14.4964C23.7603 14.9714 24.352 15.2534 25.0665 15.3085Z" fill="#F17547"/>
</svg>
