<svg width="20" height="18" viewBox="0 0 20 18" fill="none" xmlns="http://www.w3.org/2000/svg">
<rect x="1" y="1" width="18" height="16" rx="4" stroke="#828282" stroke-width="2"/>
<path d="M15.0325 4.00008C15.0396 4.00008 15.0467 4.00008 15.0541 4.00033C15.5837 4.0121 16.0037 4.45075 15.9919 4.98037C15.9544 6.68397 15.0183 8.44054 13.4875 9.67926C12.5923 10.4036 11.5682 10.8957 10.5256 11.1119C10.0965 12.0866 9.40188 12.9854 8.50643 13.7097C7.92312 14.182 6.94112 14.6221 6.27763 14.8555C5.77768 15.0313 5.23016 14.7687 5.05436 14.269C4.87855 13.7693 5.14115 13.2216 5.6411 13.0458C6.28277 12.8199 6.9958 12.4644 7.29959 12.2185C7.69754 11.8965 8.03983 11.5314 8.31592 11.1399C7.33024 10.9427 6.48972 10.4511 5.88483 9.70353L5.87036 9.68588C5.3812 9.08172 5.12424 8.34173 5.1463 7.60198C5.1696 6.81907 5.51458 6.10188 6.09275 5.63405C7.25938 4.69006 9.05763 4.97154 10.1017 6.26151L10.1156 6.27842C10.721 7.02675 11.0268 7.95138 11.0138 8.95667C11.4546 8.76836 11.883 8.50968 12.2807 8.18774C13.362 7.31289 14.049 6.0678 14.0738 4.9382C14.0853 4.41593 14.5124 4.00008 15.0325 4.00008ZM9.06646 9.30852C9.16135 8.59844 9.00908 7.96094 8.62511 7.48625L8.61113 7.46908C8.23844 7.00836 7.6382 6.85144 7.29959 7.12532C7.10368 7.28396 7.06788 7.52768 7.06421 7.65886C7.05587 7.93593 7.16425 8.23482 7.36163 8.47879L7.37609 8.49644C7.76031 8.97138 8.35196 9.25336 9.06646 9.30852Z" fill="#828282"/>
</svg>
