<svg width="512" height="512" viewBox="0 0 512 512" fill="none" xmlns="http://www.w3.org/2000/svg">
<path d="M352.068 49.2946C356.496 44.8636 364.464 44.8636 369.334 49.2946C374.204 53.7256 373.761 61.7013 369.334 66.5754L341.886 94.0475L374.204 126.394L401.653 98.9215C424.231 76.3235 424.231 39.5465 401.653 16.9485C379.074 -5.64949 342.329 -5.64949 319.75 16.9485L292.302 44.4205L324.62 76.7666L352.068 49.2946Z" fill="#FF6B37"/>
<path d="M66.518 369.212C62.0909 373.643 54.122 373.643 49.2521 369.212C44.3822 364.781 44.825 356.805 49.2521 351.931L76.7005 324.459L44.3823 292.113L16.9339 319.585C-5.64463 342.183 -5.64463 378.96 16.9339 401.558C39.5124 424.156 76.2578 424.156 98.8363 401.558L126.285 374.086L93.9664 341.74L66.518 369.212Z" fill="#20375C"/>
<path d="M160.371 462.706C155.943 467.137 147.975 467.137 143.105 462.706C138.235 458.275 138.677 450.299 143.105 445.425L170.553 417.953L138.235 385.607L110.786 413.079C88.2079 435.677 88.2079 472.454 110.786 495.052C133.365 517.65 170.11 517.65 192.689 495.052L220.137 467.58L187.819 435.233L160.371 462.706Z" fill="#FF6B37"/>
<path d="M413.164 110.443L385.715 137.915L418.034 170.261L445.482 142.789C449.909 138.358 457.878 138.358 462.748 142.789C467.618 147.22 467.175 155.196 462.748 160.07L435.299 187.542L467.618 219.888L495.066 192.416C517.645 169.818 517.645 133.041 495.066 110.443C472.488 87.8451 435.742 87.8451 413.164 110.443Z" fill="#20375C"/>
<path d="M49.6955 160.07C45.2684 155.639 45.2684 147.663 49.6955 142.789C54.1227 137.915 62.0915 138.358 66.9614 142.789L95.738 171.591L128.056 139.244L99.2797 110.443C76.7012 87.8451 39.9557 87.8451 17.3772 110.443C-5.20127 133.041 -5.20127 169.818 17.3772 192.416L46.1538 221.218L78.472 188.871L49.6955 160.07Z" fill="#FF6B37"/>
<path d="M368.891 445.425C373.319 449.856 373.319 457.831 368.891 462.705C364.464 467.579 356.495 467.136 351.625 462.705L325.505 436.563L293.187 468.909L319.307 495.052C341.886 517.649 378.631 517.649 401.21 495.052C423.788 472.454 423.788 435.676 401.21 413.078L375.089 386.936L342.771 419.282L368.891 445.425Z" fill="#20375C"/>
<path d="M143.105 66.5754C138.677 62.1444 138.677 54.1687 143.105 49.2946C147.532 44.4205 155.501 44.8636 160.371 49.2946L189.147 78.0959L221.465 45.7498L192.689 16.9485C170.11 -5.64949 133.365 -5.64949 110.786 16.9485C88.2079 39.5465 88.2079 76.3235 110.786 98.9215L139.563 127.723L171.881 95.3767L143.105 66.5754Z" fill="#20375C"/>
<path d="M462.306 351.931C466.734 356.362 466.734 364.338 462.306 369.212C457.879 374.086 449.91 373.643 445.041 369.212L418.92 343.069L386.602 375.415L412.722 401.558C435.301 424.156 472.046 424.156 494.625 401.558C517.203 378.96 517.203 342.183 494.625 319.585L468.504 293.442L436.186 325.789L462.306 351.931Z" fill="#FF6B37"/>
<path d="M352.954 168.489L298.942 222.103L333.917 257.108L298.942 291.67L352.954 345.284L441.497 256.665L387.486 203.05L352.954 168.489Z" fill="#20375C"/>
<path d="M223.236 256.665L169.667 203.05L159.928 193.302C145.318 178.68 120.969 178.68 106.359 193.302C91.7494 207.924 91.7494 232.295 106.359 246.917L116.099 256.665L106.359 266.413C91.7494 281.035 91.7494 305.406 106.359 320.028C120.969 334.65 145.318 334.65 159.928 320.028L223.236 256.665Z" fill="#20375C"/>
<path d="M332.144 147.663L278.576 94.048L268.836 84.2998C254.227 69.6776 229.877 69.6776 215.268 84.2998C200.658 98.922 200.658 123.292 215.268 137.915L225.007 147.663L190.033 182.667L243.601 236.282L332.144 147.663Z" fill="#FF6B37"/>
<path d="M332.144 366.11L278.576 312.495L243.601 277.49L190.033 331.105L225.007 366.11L215.268 375.858C200.658 390.48 200.658 414.851 215.268 429.473C229.877 444.095 254.227 444.095 268.836 429.473L332.144 366.11Z" fill="#FF6B37"/>
</svg>
