<svg width="192" height="192" viewBox="0 0 192 192" fill="none" xmlns="http://www.w3.org/2000/svg">
<path d="M132.026 18.4855C133.686 16.8239 136.674 16.8239 138.5 18.4855C140.327 20.1471 140.161 23.138 138.5 24.9658L128.207 35.2678L140.327 47.3976L150.62 37.0956C159.087 28.6213 159.087 14.8299 150.62 6.35568C142.153 -2.11856 128.373 -2.11856 119.906 6.35568L109.613 16.6577L121.733 28.7875L132.026 18.4855Z" fill="#FF6B37"/>
<path d="M24.9443 138.454C23.2841 140.116 20.2957 140.116 18.4695 138.454C16.6433 136.793 16.8094 133.802 18.4695 131.974L28.7627 121.672L16.6433 109.542L6.3502 119.844C-2.11673 128.319 -2.11673 142.11 6.3502 150.584C14.8171 159.059 28.5967 159.059 37.0636 150.584L47.3567 140.282L35.2374 128.152L24.9443 138.454Z" fill="#20375C"/>
<path d="M60.1391 173.515C58.4789 175.176 55.4906 175.176 53.6644 173.515C51.8382 171.853 52.0042 168.862 53.6644 167.034L63.9575 156.732L51.8382 144.602L41.545 154.904C33.0781 163.379 33.0781 177.17 41.545 185.644C50.012 194.119 63.7915 194.119 72.2584 185.644L82.5516 175.342L70.4322 163.212L60.1391 173.515Z" fill="#FF6B37"/>
<path d="M154.936 41.4162L144.643 51.7182L156.762 63.848L167.056 53.546C168.716 51.8844 171.704 51.8844 173.53 53.546C175.356 55.2076 175.19 58.1985 173.53 60.0263L163.237 70.3283L175.356 82.4581L185.65 72.1561C194.117 63.6819 194.117 49.8905 185.65 41.4162C177.183 32.942 163.403 32.942 154.936 41.4162Z" fill="#20375C"/>
<path d="M18.6356 60.0263C16.9754 58.3647 16.9754 55.3738 18.6356 53.546C20.2958 51.7183 23.2841 51.8844 25.1103 53.546L35.9015 64.3465L48.0208 52.2167L37.2296 41.4162C28.7627 32.942 14.9832 32.942 6.51622 41.4162C-1.95072 49.8905 -1.95072 63.6819 6.51622 72.1561L17.3074 82.9566L29.4268 70.8268L18.6356 60.0263Z" fill="#FF6B37"/>
<path d="M138.334 167.034C139.995 168.696 139.995 171.687 138.334 173.514C136.674 175.342 133.686 175.176 131.86 173.514L122.065 163.711L109.945 175.841L119.74 185.644C128.207 194.119 141.987 194.119 150.454 185.644C158.921 177.17 158.921 163.379 150.454 154.904L140.659 145.101L128.539 157.231L138.334 167.034Z" fill="#20375C"/>
<path d="M53.6644 24.9658C52.0042 23.3042 52.0042 20.3132 53.6644 18.4855C55.3246 16.6577 58.3129 16.8239 60.1391 18.4855L70.9303 29.286L83.0496 17.1562L72.2584 6.35568C63.7915 -2.11856 50.012 -2.11856 41.545 6.35568C33.0781 14.8299 33.0781 28.6213 41.545 37.0956L52.3362 47.8961L64.4556 35.7663L53.6644 24.9658Z" fill="#20375C"/>
<path d="M173.365 131.974C175.025 133.636 175.025 136.627 173.365 138.455C171.705 140.282 168.716 140.116 166.89 138.455L157.095 128.651L144.976 140.781L154.771 150.584C163.238 159.059 177.017 159.059 185.484 150.584C193.951 142.11 193.951 128.319 185.484 119.844L175.689 110.041L163.57 122.171L173.365 131.974Z" fill="#FF6B37"/>
<path d="M132.358 63.1832L112.104 83.2888L125.219 96.4155L112.104 109.376L132.358 129.482L165.561 96.2494L145.307 76.1438L132.358 63.1832Z" fill="#20375C"/>
<path d="M83.7137 96.2493L63.6255 76.1438L59.9731 72.4882C54.4945 67.0049 45.3634 67.0049 39.8848 72.4882C34.4062 77.9716 34.4062 87.1105 39.8848 92.5938L43.5372 96.2493L39.8848 99.9049C34.4062 105.388 34.4062 114.527 39.8848 120.01C45.3634 125.494 54.4945 125.494 59.9731 120.01L83.7137 96.2493Z" fill="#20375C"/>
<path d="M124.554 55.3736L104.466 35.2681L100.813 31.6125C95.3349 26.1292 86.2039 26.1292 80.7253 31.6125C75.2466 37.0958 75.2466 46.2347 80.7253 51.7181L84.3776 55.3736L71.2622 68.5004L91.3504 88.6059L124.554 55.3736Z" fill="#FF6B37"/>
<path d="M124.554 137.291L104.466 117.186L91.3504 104.059L71.2622 124.164L84.3776 137.291L80.7253 140.947C75.2466 146.43 75.2466 155.569 80.7253 161.052C86.2039 166.536 95.3349 166.536 100.813 161.052L124.554 137.291Z" fill="#FF6B37"/>
</svg>
