<svg width="192" height="192" viewBox="0 0 192 192" fill="none" xmlns="http://www.w3.org/2000/svg">
<rect width="192" height="192" fill="#253659"/>
<path d="M29.5898 130.302C30.1067 130.302 30.6668 130.302 31.2268 130.173C31.8299 130.087 32.3899 130 32.8638 129.871C33.8977 129.612 34.8454 129.526 35.8362 129.526C36.3532 129.526 36.827 129.742 37.1717 130.216C37.5594 130.69 37.8609 131.251 38.1194 131.855C38.3779 132.459 38.5071 133.105 38.5502 133.752C38.5502 134.227 38.2917 134.442 37.6886 134.399C36.9132 134.313 36.0516 134.27 35.147 134.227C34.2423 134.227 33.3376 134.227 32.4761 134.227H32.3468C32.0453 135.003 31.7437 135.779 31.3991 136.555C31.0545 137.332 30.7098 138.022 30.3221 138.712C31.6145 139.488 32.9499 140.393 34.3715 141.471C35.7931 142.55 37.0855 143.757 38.3779 145.094C38.5502 145.31 38.6363 145.525 38.6794 145.784C38.6794 146.043 38.6794 146.301 38.5071 146.517C38.3779 146.733 38.2056 146.948 37.9902 147.25C37.7748 147.509 37.5163 147.768 37.2578 148.026C36.9994 148.285 36.6978 148.501 36.4393 148.716C36.1378 148.932 35.8793 149.061 35.6639 149.148C35.147 149.32 34.7162 149.148 34.3285 148.759C33.553 147.768 32.6053 146.733 31.5283 145.655C30.4083 144.576 29.2882 143.541 28.082 142.55C27.0481 144.059 25.9281 145.482 24.7219 146.776C23.5588 148.069 22.3525 149.234 21.1463 150.226C20.5432 150.657 19.9832 150.873 19.5093 150.873C18.7339 150.786 18.0016 150.484 17.2692 150.01C17.0538 149.838 16.9677 149.665 17.0108 149.493C17.0538 149.32 17.14 149.104 17.2692 148.932C19.1647 146.819 20.974 144.533 22.611 142.032C24.248 139.574 25.6265 136.987 26.7035 134.27C26.1866 134.27 25.7127 134.356 25.2388 134.399C24.765 134.442 24.2911 134.528 23.8603 134.658C22.7403 135.003 21.6633 135.175 20.7156 135.175C20.3278 135.175 20.0263 135.175 19.854 135.046C19.6386 134.96 19.4663 134.787 19.294 134.528C18.9493 134.054 18.6478 133.45 18.3462 132.76C18.0447 132.07 17.8723 131.424 17.7431 130.82C17.7 130.561 17.7431 130.389 17.9154 130.216C18.0877 130.044 18.2601 130 18.5185 130.044C19.2509 130.216 20.0694 130.302 20.8879 130.345C21.7064 130.389 22.6541 130.432 23.6449 130.432H29.6329L29.5898 130.302ZM48.9322 159.368C48.9322 160.619 48.6737 161.783 48.1568 162.861C47.6398 163.939 46.9506 164.888 46.0459 165.664C45.1413 166.44 44.0643 167.087 42.7719 167.562C41.5226 168.036 40.101 168.252 38.5933 168.252C37.0855 168.252 35.6208 168.036 34.3715 167.562C33.1222 167.087 32.0022 166.483 31.0976 165.664C30.1929 164.845 29.4605 163.939 28.9867 162.861C28.4697 161.783 28.2113 160.619 28.2113 159.368C28.2113 158.117 28.4697 156.953 28.9867 155.875C29.5036 154.797 30.1929 153.848 31.0976 153.072C32.0022 152.296 33.0792 151.649 34.3715 151.174C35.6208 150.7 37.0424 150.484 38.5933 150.484C40.1441 150.484 41.5226 150.7 42.7719 151.174C44.0212 151.649 45.1413 152.252 46.0459 153.072C46.9506 153.848 47.6829 154.797 48.1568 155.875C48.6737 156.953 48.9322 158.117 48.9322 159.368ZM43.2889 159.368C43.2889 157.945 42.8581 156.737 41.9965 155.746C41.1349 154.754 39.9718 154.322 38.5502 154.322C37.8178 154.322 37.1717 154.452 36.6116 154.711C36.0085 154.969 35.5347 155.314 35.1039 155.789C34.6731 156.22 34.3715 156.781 34.1561 157.384C33.9407 157.988 33.8115 158.678 33.8115 159.368C33.8115 160.058 33.9407 160.748 34.1561 161.352C34.3715 161.955 34.7162 162.516 35.1039 162.947C35.5347 163.378 36.0085 163.767 36.6116 164.025C37.1717 164.284 37.8609 164.413 38.5502 164.413C39.9718 164.413 41.1349 163.939 41.9965 162.99C42.8581 162.042 43.2889 160.834 43.2889 159.368ZM49.4061 147.466C49.4061 148.199 49.1045 148.759 48.5445 149.191C48.0275 149.579 47.4675 149.924 46.8213 150.139C46.1751 150.398 45.529 150.528 44.8828 150.528C44.1504 150.528 43.8058 150.183 43.8058 149.449V141.083C43.5473 141.083 43.2889 141.126 43.0304 141.17C42.7719 141.213 42.5565 141.256 42.298 141.299C41.0488 141.644 39.8425 141.816 38.6794 141.816C38.2917 141.816 37.9902 141.773 37.8179 141.687C37.6455 141.601 37.4301 141.428 37.2578 141.17C36.9132 140.695 36.6116 140.091 36.3101 139.402C36.0085 138.668 35.8362 138.022 35.7501 137.418C35.707 137.159 35.7501 136.987 35.9224 136.814C36.0947 136.642 36.267 136.598 36.5255 136.642C37.9902 136.9 39.7133 137.03 41.6949 137.03H43.8489V133.019C43.8489 132.07 43.5473 131.337 42.9873 130.863C42.5565 130.518 42.1688 130.259 41.738 130.044C41.3503 129.828 40.9195 129.655 40.4887 129.526C40.1441 129.397 39.9718 129.138 40.0149 128.836C40.0579 128.405 40.1872 127.931 40.4026 127.456C40.618 126.939 40.8334 126.551 41.0488 126.249C41.178 126.033 41.4365 125.947 41.7811 126.033C43.0735 126.292 44.3658 126.637 45.6151 127.111C46.9075 127.586 48.0706 128.189 49.1045 128.879C49.6645 129.224 49.923 129.699 49.8368 130.259C49.7507 130.949 49.6645 131.639 49.5784 132.415C49.4922 133.149 49.4491 133.925 49.4491 134.701V147.466H49.4061Z" fill="#FAFAFA"/>
<path d="M84.7304 147.077C85.8505 147.077 87.0997 146.905 88.3921 146.603C89.4691 146.344 90.5891 146.215 91.7953 146.215C92.3123 146.215 92.7862 146.431 93.1308 146.905C93.5185 147.379 93.82 147.983 94.0785 148.716C94.337 149.449 94.4662 150.053 94.5093 150.571C94.5093 151.045 94.2508 151.261 93.6477 151.217C92.8723 151.131 92.0107 151.088 91.1061 151.045C90.2014 151.002 89.2968 151.002 88.4352 151.002H66.1634C65.5172 151.002 64.8711 151.002 64.2249 151.131C63.5787 151.261 63.0187 151.304 62.4586 151.476C61.2094 151.821 60.0032 151.951 58.84 151.951C58.4523 151.951 58.1508 151.951 57.9784 151.821C57.8061 151.735 57.5907 151.562 57.4184 151.347C57.0738 150.872 56.7722 150.269 56.4707 149.536C56.1691 148.802 55.9537 148.156 55.8676 147.552C55.8245 147.336 55.8676 147.121 56.0399 146.948C56.2122 146.776 56.3845 146.733 56.643 146.776C58.1077 147.034 59.8308 147.164 61.8125 147.164H84.6873L84.7304 147.077ZM62.114 127.844C62.8464 127.887 63.6649 127.93 64.4834 127.974C65.3019 128.017 66.1203 127.974 66.9388 127.974H79.2163C79.9487 127.974 80.5948 127.715 81.1979 127.197C81.4133 127.068 81.6287 126.982 81.8872 126.982C82.1457 126.982 82.4472 127.068 82.7488 127.154C83.2657 127.284 83.7827 127.499 84.2996 127.715C84.8166 127.93 85.3335 128.189 85.7643 128.491C86.1089 128.707 86.2382 129.095 86.2382 129.655C86.2382 130.087 86.152 130.475 86.1089 130.906C86.0659 131.337 85.9797 131.725 85.8935 132.157C85.8074 132.588 85.7212 132.933 85.6351 133.235C85.5489 133.537 85.4628 133.838 85.4197 134.183H85.592C85.8505 134.183 86.0659 134.227 86.2382 134.399C86.4536 134.528 86.5828 134.701 86.712 134.873C86.9705 135.218 87.1428 135.65 87.3151 136.124C87.4444 136.598 87.5305 137.03 87.5736 137.504C87.6167 138.108 87.3151 138.366 86.669 138.323C85.9797 138.28 85.2474 138.194 84.4719 138.151C83.6965 138.151 82.9211 138.065 82.1457 138.065H68.8774C68.8774 138.453 68.8343 138.755 68.8343 139.013C68.8343 139.315 68.8343 139.574 68.8343 139.876V140.005C68.8343 140.393 68.9205 140.652 69.0497 140.781C69.222 140.911 69.4374 140.954 69.782 140.954H78.7855C79.9056 140.954 81.1549 140.781 82.4472 140.436C83.5242 140.178 84.6442 140.048 85.8505 140.048C86.3674 140.048 86.8413 140.264 87.1859 140.738C87.5736 141.213 87.8752 141.773 88.1336 142.377C88.3921 142.981 88.5213 143.628 88.5644 144.318C88.5644 144.792 88.306 145.008 87.7028 144.964C86.9274 144.878 86.0659 144.835 85.1612 144.792C84.2565 144.749 83.3519 144.749 82.4903 144.749H68.1881C67.8004 144.749 67.4127 144.749 67.025 144.663C66.6373 144.663 66.2927 144.533 65.9911 144.447C65.0434 144.102 64.3541 143.628 63.9233 142.938C63.5787 142.42 63.4064 141.859 63.4064 141.299V139.703C63.4064 138.97 63.191 138.453 62.8033 138.194C62.5448 138.021 62.3294 137.849 62.0709 137.763C61.8125 137.676 61.554 137.547 61.1663 137.418C60.9078 137.331 60.7786 137.116 60.7786 136.814C60.7786 136.555 60.7786 136.167 60.9078 135.736C60.994 135.262 61.0801 134.917 61.1663 134.744C61.2955 134.485 61.4678 134.399 61.6832 134.399C62.2002 134.399 62.8464 134.399 63.6218 134.399C64.3972 134.399 65.1726 134.528 65.948 134.658L80.4225 134.528V131.812H69.9544C69.4805 131.812 68.9635 131.855 68.4466 131.984C67.9297 132.07 67.4127 132.2 66.9819 132.286C66.5081 132.372 66.0342 132.458 65.5172 132.545C65.0003 132.631 64.5264 132.674 64.0095 132.674C63.4925 132.674 63.0187 132.458 62.674 131.984C62.2863 131.51 61.9848 130.992 61.7263 130.388C61.4678 129.785 61.3386 129.181 61.2955 128.534C61.2955 128.06 61.554 127.844 62.1571 127.887L62.114 127.844ZM86.5397 160.748C86.5397 161.912 86.2812 162.99 85.7212 163.939C85.1612 164.888 84.3858 165.707 83.395 166.44C82.4041 167.13 81.241 167.691 79.8625 168.036C78.484 168.424 77.0193 168.596 75.4254 168.596C73.8315 168.596 72.2806 168.424 70.9021 168.036C69.5236 167.648 68.3604 167.13 67.3696 166.44C66.3788 165.75 65.6034 164.931 65.0434 163.939C64.4834 162.99 64.2249 161.912 64.2249 160.748C64.2249 159.583 64.4834 158.548 65.0434 157.557C65.6034 156.608 66.3788 155.789 67.3696 155.055C68.3604 154.365 69.5236 153.805 70.9021 153.46C72.2806 153.115 73.7453 152.899 75.4254 152.899C77.1055 152.899 78.5271 153.072 79.8625 153.46C81.1979 153.848 82.4041 154.365 83.395 155.055C84.3858 155.745 85.1612 156.565 85.7212 157.557C86.2812 158.505 86.5397 159.583 86.5397 160.748ZM80.9395 160.748C80.9395 159.497 80.4225 158.505 79.3886 157.815C78.3547 157.125 77.0193 156.78 75.4254 156.78C73.8315 156.78 72.496 157.125 71.4621 157.815C70.4282 158.505 69.9113 159.497 69.9113 160.748C69.9113 161.998 70.4282 162.99 71.4621 163.68C72.496 164.37 73.8315 164.715 75.4254 164.715C77.0193 164.715 78.3547 164.37 79.3886 163.68C80.4225 162.99 80.9395 161.998 80.9395 160.748Z" fill="#FAFAFA"/>
<path d="M119.366 143.757C119.366 145.266 119.107 146.646 118.591 147.897C118.074 149.191 117.341 150.312 116.35 151.217C115.36 152.123 114.196 152.899 112.861 153.46C111.526 154.021 109.975 154.279 108.338 154.279C106.701 154.279 105.15 154.021 103.771 153.46C102.393 152.899 101.23 152.166 100.282 151.217C99.3343 150.269 98.6019 149.148 98.085 147.897C97.568 146.646 97.3096 145.223 97.3096 143.757C97.3096 142.291 97.568 140.911 98.085 139.617C98.6019 138.323 99.3343 137.202 100.282 136.253C101.23 135.305 102.393 134.572 103.771 134.011C105.15 133.45 106.658 133.192 108.338 133.192C110.018 133.192 111.526 133.45 112.861 134.011C114.196 134.572 115.36 135.305 116.35 136.253C117.298 137.202 118.074 138.323 118.591 139.617C119.107 140.911 119.366 142.291 119.366 143.757ZM113.766 143.757C113.766 142.851 113.636 141.989 113.421 141.17C113.206 140.35 112.818 139.617 112.344 139.013C111.87 138.41 111.267 137.935 110.621 137.59C109.932 137.245 109.199 137.03 108.338 137.03C107.476 137.03 106.701 137.202 106.055 137.59C105.408 137.935 104.805 138.41 104.331 139.013C103.858 139.617 103.47 140.307 103.254 141.17C103.039 142.032 102.91 142.851 102.91 143.757C102.91 144.663 103.039 145.525 103.254 146.344C103.47 147.164 103.858 147.897 104.331 148.501C104.805 149.104 105.365 149.579 106.055 149.924C106.701 150.269 107.476 150.441 108.338 150.441C109.199 150.441 109.932 150.269 110.621 149.924C111.31 149.579 111.87 149.061 112.344 148.501C112.818 147.897 113.206 147.207 113.421 146.344C113.636 145.482 113.766 144.663 113.766 143.757ZM124.105 133.278C124.105 132.372 123.846 131.682 123.286 131.165C122.855 130.82 122.468 130.518 122.037 130.259C121.649 130 121.218 129.785 120.788 129.655C120.4 129.483 120.228 129.267 120.314 128.879C120.357 128.448 120.486 128.017 120.701 127.499C120.917 126.982 121.089 126.594 121.304 126.292C121.477 126.033 121.735 125.947 122.123 126.033C123.415 126.292 124.708 126.68 125.914 127.24C127.12 127.801 128.283 128.448 129.317 129.138C129.877 129.483 130.136 129.957 130.05 130.518C129.963 131.208 129.877 131.898 129.791 132.631C129.705 133.364 129.662 134.14 129.662 134.917V163.939C129.662 164.672 129.36 165.233 128.8 165.621C128.283 166.009 127.723 166.354 127.077 166.57C126.431 166.828 125.785 166.958 125.139 166.958C124.406 166.958 124.062 166.613 124.062 165.88V133.235L124.105 133.278Z" fill="#FAFAFA"/>
<path d="M165.374 146.388C166.494 146.388 167.744 146.215 169.036 145.87C170.113 145.611 171.233 145.482 172.439 145.482C172.956 145.482 173.43 145.698 173.775 146.172C174.163 146.646 174.464 147.25 174.723 147.983C174.981 148.716 175.11 149.32 175.153 149.837C175.153 150.312 174.895 150.527 174.292 150.484C173.516 150.398 172.655 150.312 171.75 150.312C170.845 150.312 169.941 150.269 169.079 150.269H146.807C146.161 150.269 145.515 150.269 144.869 150.398C144.223 150.527 143.663 150.571 143.103 150.743C141.853 151.088 140.647 151.217 139.484 151.217C139.096 151.217 138.795 151.174 138.622 151.088C138.407 151.002 138.235 150.829 138.062 150.614C137.718 150.139 137.416 149.536 137.115 148.802C136.813 148.069 136.641 147.423 136.512 146.819C136.469 146.56 136.512 146.388 136.684 146.215C136.856 146.043 137.029 145.999 137.287 146.043C138.752 146.301 140.475 146.431 142.457 146.431H165.331L165.374 146.388ZM144.74 159.195C144.74 158.85 144.697 158.549 144.654 158.29C144.654 157.988 144.524 157.772 144.266 157.643C144.007 157.514 143.749 157.384 143.49 157.255C143.189 157.169 142.93 157.082 142.715 156.996C142.327 156.867 142.155 156.694 142.155 156.479C142.155 156.047 142.155 155.659 142.155 155.228C142.198 154.797 142.284 154.452 142.413 154.107C142.5 153.805 142.715 153.676 143.06 153.676C144.05 153.676 145.084 153.676 146.204 153.805C147.324 153.934 148.401 154.107 149.478 154.322H160.722C161.454 154.322 162.1 154.064 162.704 153.546C162.919 153.374 163.134 153.331 163.393 153.331C163.651 153.331 163.953 153.417 164.254 153.503C164.771 153.632 165.288 153.848 165.805 154.064C166.322 154.279 166.839 154.538 167.27 154.84C167.615 155.055 167.744 155.444 167.744 156.004C167.744 157.169 167.658 158.333 167.485 159.497C167.313 160.662 167.098 161.783 166.796 162.947C167.313 162.947 167.701 163.163 167.959 163.594C168.261 164.025 168.476 164.457 168.562 164.845C168.648 165.233 168.692 165.664 168.735 166.181C168.735 166.483 168.735 166.699 168.519 166.871C168.347 167.044 168.131 167.087 167.83 167.087C167.098 167.044 166.408 166.958 165.762 166.915C165.116 166.915 164.384 166.828 163.608 166.828H150.125C149.995 167.13 149.78 167.346 149.392 167.561C148.875 167.82 148.358 167.95 147.798 168.079C147.238 168.165 146.721 168.208 146.161 168.208C145.472 168.208 145.127 167.82 145.127 167.173L144.654 159.239L144.74 159.195ZM167.141 135.52C167.141 136.728 166.839 137.892 166.236 138.927C165.633 139.962 164.814 140.868 163.781 141.644C162.747 142.42 161.54 142.981 160.119 143.455C158.697 143.929 157.233 144.102 155.596 144.102C153.959 144.102 152.494 143.886 151.072 143.455C149.651 143.024 148.444 142.42 147.411 141.644C146.377 140.868 145.558 139.962 144.955 138.927C144.352 137.892 144.05 136.771 144.05 135.52C144.05 134.27 144.352 133.148 144.955 132.113C145.558 131.079 146.377 130.173 147.411 129.397C148.444 128.62 149.651 128.06 151.072 127.585C152.494 127.154 153.959 126.939 155.596 126.939C157.233 126.939 158.697 127.154 160.119 127.585C161.54 128.017 162.747 128.62 163.781 129.397C164.814 130.173 165.633 131.079 166.236 132.113C166.839 133.148 167.141 134.27 167.141 135.52ZM161.54 135.52C161.54 134.873 161.368 134.227 161.11 133.666C160.808 133.105 160.377 132.588 159.86 132.2C159.343 131.768 158.697 131.467 158.008 131.208C157.319 130.949 156.5 130.863 155.682 130.863C154.863 130.863 154.045 130.992 153.355 131.208C152.666 131.423 152.02 131.768 151.503 132.2C150.986 132.631 150.555 133.105 150.254 133.666C149.952 134.227 149.823 134.873 149.823 135.52C149.823 136.167 149.995 136.814 150.254 137.375C150.555 137.935 150.986 138.453 151.503 138.841C152.02 139.229 152.666 139.574 153.355 139.833C154.045 140.091 154.863 140.178 155.682 140.178C156.5 140.178 157.319 140.048 158.008 139.833C158.697 139.617 159.343 139.272 159.86 138.841C160.377 138.41 160.808 137.935 161.11 137.375C161.411 136.814 161.54 136.167 161.54 135.52ZM150.125 157.945L150.254 163.206H161.842V157.945H150.125Z" fill="#FAFAFA"/>
<path d="M114.829 29.114C115.579 28.3636 116.853 28.3636 117.603 29.114C118.352 29.8644 118.352 31.1401 117.603 31.8905L113.105 36.3931L118.427 41.721L122.925 37.2185C126.598 33.5415 126.598 27.5381 122.925 23.786C119.252 20.0339 113.255 20.1089 109.507 23.786L105.009 28.2885L110.331 33.6165L114.829 29.114Z" fill="#E4E8F1"/>
<path d="M62.8793 86.6711C62.1296 87.4215 60.8552 87.4215 60.1056 86.6711C59.356 85.9207 59.356 84.6449 60.1056 83.8945L64.6034 79.392L59.281 74.064L54.7832 78.5665C51.11 82.2436 51.11 88.247 54.7832 91.9991C58.4564 95.7512 64.4535 95.6761 68.2017 91.9991L72.6994 87.4965L67.3771 82.1686L62.8793 86.6711Z" fill="#E4E8F1"/>
<path d="M78.1712 101.98C77.4216 102.73 76.1472 102.73 75.3976 101.98C74.648 101.229 74.648 99.9536 75.3976 99.2032L79.8954 94.7007L74.573 89.3727L70.0752 93.8752C66.402 97.5523 66.402 103.556 70.0752 107.308C73.7484 111.06 79.7455 110.985 83.4937 107.308L87.9914 102.805L82.669 97.4772L78.1712 101.98Z" fill="#E4E8F1"/>
<path d="M124.799 39.0946L120.301 43.5971L125.624 48.9251L130.121 44.4226C130.871 43.6722 132.145 43.6722 132.895 44.4226C133.645 45.173 133.645 46.4487 132.895 47.1991L128.397 51.7017L133.72 57.0296L138.217 52.5271C141.891 48.8501 141.891 42.8467 138.217 39.0946C134.544 35.3425 128.547 35.4175 124.799 39.0946Z" fill="#E4E8F1"/>
<path d="M60.1055 47.1991C59.3558 46.4487 59.3558 45.173 60.1055 44.4226C60.8551 43.6721 62.1295 43.6721 62.8791 44.4226L67.6018 49.1502L72.9242 43.8222L68.2015 39.0946C64.5283 35.4175 58.5312 35.4175 54.7831 39.0946C51.0349 42.7716 51.1099 48.775 54.7831 52.5271L59.5058 57.2547L64.8282 51.9268L60.1055 47.1991Z" fill="#E4E8F1"/>
<path d="M117.602 99.2031C118.351 99.9535 118.351 101.229 117.602 101.98C116.852 102.73 115.578 102.73 114.828 101.98L110.555 97.7022L105.233 103.03L109.506 107.308C113.179 110.985 119.176 110.985 122.924 107.308C126.672 103.631 126.597 97.6272 122.924 93.8751L118.651 89.5977L113.329 94.9257L117.602 99.2031Z" fill="#E4E8F1"/>
<path d="M75.3979 31.8905C74.6483 31.14 74.6483 29.8643 75.3979 29.1139C76.1476 28.3635 77.4219 28.3635 78.1716 29.1139L82.8943 33.8416L88.2167 28.5136L83.494 23.7859C79.8208 20.1089 73.8237 20.1089 70.0756 23.7859C66.3274 27.463 66.4024 33.4663 70.0756 37.2184L74.7983 41.9461L80.1206 36.6181L75.3979 31.8905Z" fill="#E4E8F1"/>
<path d="M132.895 83.8945C133.644 84.6449 133.644 85.9206 132.895 86.671C132.145 87.4215 130.871 87.4215 130.121 86.671L125.848 82.3937L120.526 87.7216L124.799 91.999C128.472 95.6761 134.469 95.6761 138.217 91.999C141.965 88.322 141.89 82.3186 138.217 78.5665L133.944 74.2891L128.622 79.6171L132.895 83.8945Z" fill="#E4E8F1"/>
<path d="M109.281 68.6612L102.609 75.3399L106.957 79.6924L102.609 84.0448L109.281 90.7235L120.376 79.6924L113.629 73.0136L109.281 68.6612Z" fill="#E4E8F1"/>
<path d="M120.525 66.1096L116.177 70.462L122.924 77.1407L133.944 66.1096L127.272 59.3558L122.924 55.0034L116.177 61.7571L120.525 66.1096Z" fill="#FF6B37"/>
<path d="M95.713 55.0034L88.9663 61.7571L93.3142 66.1096L88.9663 70.462L95.713 77.1407L106.733 66.1096L100.061 59.3558L95.713 55.0034Z" fill="#FF6B37"/>
<path d="M106.733 93.35L100.062 86.6712L95.7137 82.3188L89.042 88.9975L93.3899 93.35L92.1905 94.5506C90.3164 96.4267 90.3164 99.4284 92.1905 101.229C94.0645 103.03 97.0631 103.105 98.8622 101.229L106.808 93.2749L106.733 93.35Z" fill="#FF6B37"/>
<path d="M79.5202 66.1097L72.8485 59.4309L71.6491 58.2303C69.775 56.3542 66.7765 56.3542 64.9773 58.2303C63.1782 60.1063 63.1033 63.108 64.9773 64.909L66.1768 66.1097L64.9773 67.3104C63.1033 69.1864 63.1033 72.1881 64.9773 73.9891C66.8514 75.7901 69.8499 75.8651 71.6491 73.9891L79.5952 66.0346L79.5202 66.1097Z" fill="#FF6B37"/>
<path d="M106.733 38.8695L100.062 32.1907L98.8622 30.99C96.9881 29.114 93.9896 29.114 92.1905 30.99C90.3913 32.8661 90.3164 35.8678 92.1905 37.6688L93.3899 38.8695L89.042 43.2219L95.7137 49.9006L106.733 38.8695Z" fill="#FF6B37"/>
<path d="M93.1635 52.4521L86.4918 45.7734L85.2923 44.5727C83.4183 42.6966 80.4197 42.6966 78.6206 44.5727C76.8215 46.4487 76.7465 49.4504 78.6206 51.2514L79.82 52.4521L75.4722 56.8045L82.1439 63.4833L93.1635 52.4521Z" fill="#E4E8F1"/>
<path d="M93.1635 79.6924L86.4918 73.0136L82.1439 68.6612L75.4722 75.3399L79.82 79.6924L78.6206 80.893C76.7465 82.7691 76.7465 85.7708 78.6206 87.5718C80.4947 89.3728 83.4932 89.4478 85.2923 87.5718L93.2385 79.6173L93.1635 79.6924Z" fill="#E4E8F1"/>
<path d="M109.281 41.421L102.609 48.0997L106.957 52.4521L102.609 56.8046L109.281 63.4833L120.376 52.4521L113.629 45.7734L109.281 41.421Z" fill="#E4E8F1"/>
</svg>
