<svg width="40" height="40" viewBox="0 0 40 40" fill="none" xmlns="http://www.w3.org/2000/svg">
<g id="Wb sunny" clip-path="url(#clip0_4750_163501)">
<path id="Vector" d="M10.0833 6.90008L9.43333 6.25008C8.78333 5.60008 7.73333 5.61675 7.1 6.25008L7.08333 6.26675C6.43333 6.91675 6.43333 7.96675 7.08333 8.60008L7.73333 9.25008C8.38333 9.90008 9.41666 9.90008 10.0667 9.25008L10.0833 9.23341C10.7333 8.60008 10.7333 7.53341 10.0833 6.90008ZM5.01666 17.5001H3.31666C2.4 17.5001 1.66666 18.2334 1.66666 19.1501V19.1667C1.66666 20.0834 2.4 20.8167 3.31666 20.8167H5C5.93333 20.8334 6.66666 20.1001 6.66666 19.1834V19.1667C6.66666 18.2334 5.93333 17.5001 5.01666 17.5001ZM20.0167 0.916748H20C19.0667 0.916748 18.3333 1.65008 18.3333 2.56675V4.16675C18.3333 5.08342 19.0667 5.81675 19.9833 5.81675H20C20.9333 5.83342 21.6667 5.10008 21.6667 4.18341V2.56675C21.6667 1.65008 20.9333 0.916748 20.0167 0.916748ZM32.9167 6.26675C32.2667 5.61675 31.2167 5.61675 30.5667 6.25008L29.9167 6.90008C29.2667 7.55008 29.2667 8.60008 29.9167 9.23341L29.9333 9.25008C30.5833 9.90008 31.6333 9.90008 32.2667 9.25008L32.9167 8.60008C33.5667 7.95008 33.5667 6.91675 32.9167 6.26675ZM29.9 31.4334L30.55 32.0834C31.2 32.7334 32.25 32.7334 32.9 32.0834C33.55 31.4334 33.55 30.3834 32.9 29.7334L32.25 29.0834C31.6 28.4334 30.55 28.4501 29.9167 29.0834C29.25 29.7501 29.25 30.7834 29.9 31.4334ZM33.3333 19.1501V19.1667C33.3333 20.0834 34.0667 20.8167 34.9833 20.8167H36.6667C37.5833 20.8167 38.3167 20.0834 38.3167 19.1667V19.1501C38.3167 18.2334 37.5833 17.5001 36.6667 17.5001H34.9833C34.0667 17.5001 33.3333 18.2334 33.3333 19.1501ZM20 9.16675C14.4833 9.16675 10 13.6501 10 19.1667C10 24.6834 14.4833 29.1667 20 29.1667C25.5167 29.1667 30 24.6834 30 19.1667C30 13.6501 25.5167 9.16675 20 9.16675ZM19.9833 37.4168H20C20.9167 37.4168 21.65 36.6834 21.65 35.7668V34.1668C21.65 33.2501 20.9167 32.5168 20 32.5168H19.9833C19.0667 32.5168 18.3333 33.2501 18.3333 34.1668V35.7668C18.3333 36.6834 19.0667 37.4168 19.9833 37.4168ZM7.08333 32.0667C7.73333 32.7168 8.78333 32.7168 9.43333 32.0667L10.0833 31.4168C10.7333 30.7668 10.7167 29.7168 10.0833 29.0834L10.0667 29.0668C9.41666 28.4168 8.36666 28.4168 7.71666 29.0668L7.06666 29.7168C6.43333 30.3834 6.43333 31.4167 7.08333 32.0667Z" fill="#FFA339"/>
</g>
<defs>
<clipPath id="clip0_4750_163501">
<rect width="40" height="40" fill="white"/>
</clipPath>
</defs>
</svg>
